<?xml version="1.0" encoding="utf-8"?>
<!-- Generator: Adobe Illustrator 26.1.0, SVG Export Plug-In . SVG Version: 6.00 Build 0)  -->
<svg version="1.1" id="Laag_1" xmlns="http://www.w3.org/2000/svg" xmlns:xlink="http://www.w3.org/1999/xlink" x="0px" y="0px"
	 viewBox="0 0 628.6 191.2" style="enable-background:new 0 0 628.6 191.2;" xml:space="preserve">
<style type="text/css">
	.st0{fill:#FFFFFF;}
</style>
<path class="st0" d="M27.9,85.5L17.3,104c-0.5,0.8-0.6,1.6-0.5,2.2c0.1,0.7,0.6,1.4,1.4,2.2l-0.8,1.3L0,99.7l0.8-1.3
	c1.1,0.3,2,0.3,2.7,0.1c0.6-0.2,1.2-0.7,1.7-1.6l27.3-47.3c0.5-0.8,0.7-1.6,0.5-2.2c-0.1-0.7-0.6-1.4-1.4-2.2l0.8-1.3l34.9,20.2
	c4.1,2.3,7.1,4.5,9.2,6.4c2.1,1.9,3.6,4.1,4.7,6.5c1.1,2.5,1.5,5.2,1.2,8c-0.3,3-1.2,5.8-2.7,8.4c-2.2,3.8-5.1,6.5-8.8,8.2
	c-3.2,1.4-6.5,1.8-9.9,1.2s-7.8-2.4-12.9-5.4L27.9,85.5L27.9,85.5z M33.2,76.3l18.6,10.8c3.7,2.1,6.5,3.2,8.5,3.3
	c1.2,0,2.5-0.3,3.7-1.1s2.3-1.9,3-3.2c0.8-1.3,1.2-2.7,1.3-4.2s-0.2-2.7-0.9-3.8c-1-1.6-3.4-3.5-7.1-5.7L41.8,61.6L33.2,76.3
	L33.2,76.3z"/>
<path class="st0" d="M96.3,118.6L89.8,135l38.6,15.4c0.9,0.4,1.6,0.4,2.3,0.2c0.6-0.2,1.3-0.8,2-1.7l1.4,0.6l-6.2,15.5l-1.4-0.6
	c0.1-1.2,0-2.1-0.3-2.6c-0.3-0.6-0.9-1.1-1.8-1.4l-54.4-21.7l0.6-1.4c1.2,0.1,2.1,0,2.7-0.3c0.6-0.3,1.1-0.9,1.4-1.8l20.2-50.7
	c0.4-0.9,0.4-1.7,0.2-2.3s-0.8-1.3-1.7-2l0.6-1.4l53.4,21.3c0.9,0.3,1.6,0.4,2.3,0.2c0.6-0.2,1.3-0.8,2-1.7l1.4,0.6l-6.2,15.5
	l-1.4-0.6c0.1-1.2,0-2-0.3-2.6s-0.9-1.1-1.8-1.4l-37.5-14.9l-5.7,14.2l24.3,9.7c0.9,0.3,1.6,0.4,2.3,0.2c0.6-0.2,1.3-0.8,2-1.7
	l1.4,0.6l-6,15.2l-1.4-0.6c0.1-1.1,0-2-0.3-2.6c-0.3-0.6-0.9-1.1-1.8-1.4L96.3,118.6L96.3,118.6z"/>
<path class="st0" d="M169.9,127.8l-9,38.2c-0.2,0.9-0.2,1.7,0.1,2.3c0.3,0.6,1,1.2,2,1.7l-0.4,1.5l-18.4-4.3l0.4-1.5
	c1.2-0.1,2-0.3,2.6-0.7c0.5-0.4,0.9-1.1,1.1-2l12.5-53.2c0.2-0.9,0.2-1.7-0.1-2.3c-0.3-0.6-1-1.2-2-1.7l0.4-1.5l21.4,5l-0.4,1.5
	c-1.4,0-2.2,0.6-2.5,1.7c-0.2,0.7,0.1,1.7,0.7,2.7l26.2,44.2l8.8-37.3c0.2-0.9,0.2-1.7-0.1-2.3s-1-1.2-2-1.7l0.4-1.5l18.4,4.3
	l-0.4,1.5c-1.2,0.1-2,0.3-2.6,0.7c-0.6,0.4-0.9,1.1-1.1,2l-12.5,53.2c-0.2,0.9-0.2,1.7,0.1,2.3c0.3,0.6,1,1.2,2,1.7l-0.4,1.5
	l-19.8-4.6l0.4-1.5c1.4,0,2.1-0.5,2.4-1.5c0.1-0.6-0.4-1.9-1.5-3.8L169.9,127.8L169.9,127.8z"/>
<path class="st0" d="M236.2,181.7l4.4-54.4c0.1-1-0.1-1.7-0.5-2.3c-0.4-0.5-1.1-1-2.3-1.4l0.1-1.5l35.9,2.9c7.9,0.6,13.8,2,17.9,4.1
	c5.8,3.1,9.9,7.8,12.4,14c1.9,4.9,2.6,10.5,2.1,16.8c-0.9,11.1-5,19.3-12.3,24.5c-3.1,2.2-6.5,3.7-10.5,4.4
	c-3.9,0.7-8.9,0.9-14.8,0.4l-35.9-2.9l0.1-1.5c1.2-0.2,2-0.6,2.4-1C235.8,183.4,236.1,182.7,236.2,181.7L236.2,181.7z M250.7,177.2
	l17.6,1.4c5.6,0.4,9.9,0,12.9-1.3c6.3-2.8,9.9-9,10.6-18.5c0.6-6.9-0.6-12.3-3.6-16.3c-1.7-2.2-3.7-3.8-6.2-4.9
	c-2.5-1.1-5.9-1.8-10.2-2.1l-17.6-1.4L250.7,177.2L250.7,177.2z"/>
<path class="st0" d="M381.4,128.5l2.3,36.1c0.4,6.8-0.5,12-2.8,15.6c-4.1,6.4-13.3,10-27.5,10.9c-10.2,0.6-18.2-0.5-23.9-3.5
	c-3.3-1.7-5.7-4.2-7.1-7.4c-1.4-3.2-2.2-7.1-2.5-11.6l-2.3-36.1c-0.1-1-0.3-1.7-0.8-2.2c-0.5-0.5-1.3-0.8-2.4-1.1l-0.1-1.5l20.1-1.3
	l0.1,1.5c-1.1,0.3-1.9,0.8-2.3,1.3c-0.4,0.6-0.6,1.3-0.5,2.3l2,32.1c0.2,3.7,0.6,6.4,1.1,8.2c0.5,1.8,1.4,3.2,2.6,4.3
	c3.2,3,8.5,4.3,15.8,3.8c7.3-0.5,12.4-2.4,15.2-5.8c1-1.3,1.7-2.8,2-4.6s0.3-4.6,0.1-8.3l-2-32.1c-0.1-1-0.3-1.7-0.8-2.2
	s-1.3-0.8-2.4-1.1l-0.1-1.5l19-1.2l0.1,1.5c-1.1,0.4-1.9,0.8-2.3,1.4C381.5,126.7,381.4,127.5,381.4,128.5L381.4,128.5z"/>
<path class="st0" d="M418.5,171.5l38.9-7.7c1-0.2,1.6-0.6,2-1.1c0.4-0.5,0.7-1.4,0.8-2.6l1.5-0.3l3.2,16.4l-1.5,0.3
	c-0.5-1.1-1.1-1.7-1.7-2.1c-0.6-0.3-1.4-0.4-2.3-0.2l-55.7,11.1l-0.3-1.5c1-0.5,1.7-1.1,2.1-1.7c0.3-0.6,0.4-1.4,0.2-2.3l-10.6-53.5
	c-0.2-1-0.5-1.6-1.1-2.1s-1.4-0.7-2.6-0.7l-0.3-1.5l19.8-3.9l0.3,1.5c-1.1,0.5-1.8,1.1-2.1,1.6c-0.3,0.6-0.4,1.4-0.2,2.3
	L418.5,171.5L418.5,171.5z"/>
<path class="st0" d="M518.4,92.5l11.8,34.2c2.2,6.5,2.7,11.7,1.4,15.7c-2.3,7.3-10.2,13.2-23.6,17.8c-9.7,3.4-17.7,4.4-23.9,3
	c-3.6-0.8-6.6-2.5-8.8-5.3c-2.2-2.7-4-6.2-5.5-10.5L458,113.3c-0.3-0.9-0.8-1.6-1.4-1.9c-0.6-0.3-1.5-0.5-2.6-0.4l-0.5-1.4l19-6.6
	l0.5,1.4c-1,0.6-1.6,1.3-1.8,1.9c-0.3,0.6-0.2,1.4,0.1,2.3l10.5,30.4c1.2,3.5,2.3,6.1,3.3,7.6s2.2,2.7,3.6,3.5
	c3.9,2.1,9.3,1.9,16.2-0.5c6.9-2.4,11.3-5.6,13.1-9.6c0.7-1.5,0.9-3.1,0.7-5c-0.2-1.8-0.9-4.5-2.1-8l-10.5-30.4
	c-0.3-0.9-0.8-1.6-1.4-1.9c-0.6-0.3-1.5-0.5-2.6-0.4l-0.5-1.4l18-6.2l0.5,1.4c-1,0.7-1.6,1.3-1.8,1.9S518.1,91.6,518.4,92.5
	L518.4,92.5z"/>
<path class="st0" d="M628.6,102.2l-17.7,9.6l-0.7-1.3c0.8-0.8,1.3-1.5,1.5-2.2c0.2-0.7,0-1.4-0.5-2.3l-18.9-34.8l0.2,50.6
	l-43.3-27.3l18.9,34.8c0.5,0.9,1,1.4,1.6,1.6c0.6,0.2,1.5,0.2,2.7-0.1l0.7,1.3l-16.7,9l-0.7-1.3c0.8-0.8,1.3-1.6,1.5-2.2
	c0.2-0.7,0-1.4-0.5-2.3l-26-48c-0.5-0.8-1-1.4-1.6-1.6c-0.6-0.2-1.5-0.2-2.7,0l-0.7-1.3l33-17.9l-0.1,1.3c0,0,0,0,0,0
	c0,0.2,0,0.3-0.1,0.5c-0.1,0.2-0.2,0.4-0.4,0.5c-1.7,1.8-3.2,3.9-4,6.3c-1.7,4.7-0.9,10.4,2.7,14c0.2,0.2,0.3,0.3,0.5,0.5
	c2,1.8,4.5,2.9,6.8,4.4c2.4,1.5,4.7,3.1,7,4.8c2.7,1.9,5.2,4,7.7,6.1c2.8,2.4,5.5,5,7.6,8.1c0.4,0.6,1,2.1,1.9,1.8
	c0.1,0,0.2-0.1,0.3-0.1c1.2-0.6,0.4-1.9,0-2.8c-2.4-4.9-3.2-10.7-3.6-16.1c0-0.2,0-0.3,0-0.5c-0.1-1.5-0.2-3.1-0.4-4.6
	c-0.1-1.5-0.3-3.1-0.2-4.6c0-2.6,0.3-5.1,0.2-7.7c0-2.9-0.5-6.1-2.1-8.6c-2.6-4.2-7.7-6-12.5-5.9c-0.7,0-1.3,0.1-2,0.1
	c-0.1,0-0.6,0.1-1,0.1c-0.3,0-0.6,0.1-0.9,0.2l-1.3-1.1l0.2-0.1l0,0l32.7-17.7l0.7,1.3c-0.8,0.8-1.3,1.5-1.5,2.2
	c-0.1,0.7,0,1.4,0.5,2.2l26,48c0.5,0.9,1,1.4,1.7,1.6c0.6,0.2,1.5,0.2,2.7,0L628.6,102.2L628.6,102.2z"/>
<path class="st0" d="M549.7,43.7C549.7,43.7,549.7,43.7,549.7,43.7C549.7,43.7,549.7,43.6,549.7,43.7L549.7,43.7L549.7,43.7z
	 M550.9,43c0.1,0,0.2,0,0.3,0.1c0-0.1,0-0.2,0-0.2L550.9,43z"/>
<path class="st0" d="M550.9,43c0.1,0,0.2,0,0.3,0.1c0-0.1,0-0.2,0-0.2L550.9,43z M549.7,43.7C549.7,43.7,549.7,43.7,549.7,43.7
	C549.7,43.7,549.7,43.6,549.7,43.7L549.7,43.7L549.7,43.7z"/>
<path class="st0" d="M562.7,60.2c0.2-0.2,0.3-0.5,0.4-0.8c0.1-0.4,0.1-0.7,0-1.1l0,0c0.5-1,0.8-2.2,0.8-3.3c0-1.2-0.3-2.5-1-3.7
	c-1.7-3.2-5.3-4.7-8.5-3.8c0-0.2,0.1-0.4,0.1-0.7c0-0.5-0.1-1.1-0.4-1.7c-0.4-0.8-1.1-1.3-1.8-1.6L530.4,5l0.2,3.9l18.8,36.2
	c-0.2,0.7-0.1,1.5,0.4,2.3s1,1.3,1.7,1.6c-2.6,2.2-3.3,6.1-1.6,9.3c1.2,2.3,3.4,3.7,5.8,4h0c0.4,0.4,0.8,0.6,1.4,0.7
	c0,0.1,0,0.1,0.1,0.2l0.8,1.4c0.4,0.7,1.1,1.1,1.8,1.1c0.3,0,0.7-0.1,1-0.2l1.8-1c0.5-0.3,0.8-0.7,1-1.2c0.2-0.5,0.1-1.1-0.2-1.6
	L562.7,60.2L562.7,60.2z M550.8,46.9c-0.3-0.6-0.4-1.2-0.2-1.7c0,0,0,0-0.1,0l0.1,0c0,0,0,0.1,0,0.1c0.1,0.1,0.2,0.1,0.3,0.2
	c0.1,0,0.2,0,0.3,0c0.2,0,0.3,0,0.4-0.1c0.2-0.1,0.4-0.3,0.5-0.7c-0.1,0-0.2-0.1-0.3-0.1l0.3-0.2c0,0.1,0,0.2,0,0.2
	c0.4,0.2,0.8,0.5,1.1,1.1c0.2,0.5,0.3,1,0.3,1.4c-0.1-0.1-0.2-0.1-0.4-0.2c-0.3-0.1-0.6,0-0.9,0.1c-0.3,0.2-0.5,0.4-0.5,0.7
	c0,0.1,0,0.1,0,0.2C551.3,47.7,551,47.3,550.8,46.9L550.8,46.9z M561.8,56.4c-0.1-0.1-0.3-0.2-0.4-0.2c-0.6-0.2-1.2-0.1-1.7,0.2
	l-3.7,2c-0.5,0.3-0.9,0.7-1.1,1.3c0,0.2-0.1,0.3-0.1,0.5c-1.3-0.4-2.5-1.4-3.3-2.8c-1.3-2.4-0.8-5.4,1.2-7l0.5,1
	c0.1,0.3,0.4,0.5,0.7,0.5c0.1,0,0.2,0,0.3,0c0.2,0,0.4,0,0.5-0.1c0.3-0.1,0.5-0.4,0.5-0.7c0.1-0.3,0-0.6-0.1-0.9l-0.5-1
	c0.5-0.2,1-0.2,1.5-0.2c1,0,2,0.3,2.9,0.8c0.9,0.5,1.6,1.3,2.2,2.2C562,53.5,562.2,55,561.8,56.4L561.8,56.4z"/>
<path class="st0" d="M565.2,63.2C565.2,63.2,565.2,63.2,565.2,63.2L565.2,63.2C565.2,63.1,565.2,63.1,565.2,63.2z"/>
<g>
	<path class="st0" d="M202.3,63V43.2c0-0.4-0.1-0.6-0.2-0.8c-0.2-0.2-0.4-0.3-0.9-0.4v-0.5h13c2.9,0,5,0.3,6.6,1
		c2.2,0.9,3.8,2.5,4.9,4.7c0.8,1.7,1.2,3.7,1.2,6c0,4-1.2,7.1-3.7,9.2c-1,0.9-2.3,1.5-3.6,1.9c-1.4,0.4-3.2,0.6-5.3,0.6h-13v-0.5
		c0.4-0.1,0.7-0.3,0.9-0.4C202.2,63.6,202.3,63.3,202.3,63z M207.4,60.9h6.4c2,0,3.6-0.3,4.6-0.8c2.2-1.2,3.3-3.5,3.3-7
		c0-2.5-0.6-4.4-1.8-5.8c-0.7-0.7-1.5-1.3-2.4-1.6c-0.9-0.3-2.2-0.5-3.7-0.5h-6.4V60.9z"/>
	<path class="st0" d="M244.6,60h-8.8l-1,2.1c-0.2,0.5-0.4,0.9-0.4,1.2c0,0.5,0.4,0.9,1.1,1v0.5h-7v-0.5c0.4-0.1,0.8-0.2,1-0.4
		c0.2-0.2,0.5-0.6,0.7-1.1l7-14.2c0.3-0.5,0.4-1,0.4-1.4c0-0.5-0.3-0.8-1-1.1v-0.5h7.4v0.5c-0.6,0.3-0.9,0.6-0.9,1.2
		c0,0.4,0.1,0.8,0.4,1.4l7.2,13.7c0.4,0.7,0.7,1.2,0.9,1.4c0.2,0.2,0.6,0.4,1,0.5v0.5H245v-0.5c0.7-0.1,1.1-0.5,1.1-1
		c0-0.4-0.1-0.8-0.4-1.3L244.6,60z M243.2,57.3l-3.1-6.2l-3,6.2H243.2z"/>
	<path class="st0" d="M259.7,52.1V63c0,0.4,0.1,0.6,0.2,0.8c0.2,0.2,0.4,0.3,0.8,0.5v0.5h-6.4v-0.5c0.4-0.1,0.7-0.3,0.8-0.4
		c0.2-0.2,0.2-0.5,0.2-0.8V47.4c0-0.4-0.1-0.6-0.2-0.8c-0.2-0.2-0.4-0.3-0.9-0.5v-0.5h7.4v0.5c-0.5,0.1-0.8,0.3-0.8,0.7
		c0,0.3,0.2,0.6,0.5,1l10.3,10.2V47.4c0-0.4-0.1-0.6-0.2-0.8c-0.2-0.2-0.4-0.3-0.9-0.5v-0.5h6.4v0.5c-0.4,0.1-0.7,0.3-0.9,0.5
		c-0.2,0.2-0.2,0.5-0.2,0.8V63c0,0.4,0.1,0.6,0.2,0.8c0.2,0.2,0.4,0.3,0.9,0.5v0.5h-6.9v-0.5c0.5-0.1,0.8-0.3,0.8-0.6
		c0-0.2-0.1-0.3-0.2-0.5c-0.1-0.2-0.5-0.5-0.9-1L259.7,52.1z"/>
	<path class="st0" d="M298.8,47.3l-2.3,4.5l-0.4-0.2c0-0.4-0.1-0.7-0.4-0.9c-0.6-0.6-1.6-1.1-2.9-1.4c-1.3-0.4-2.5-0.6-3.8-0.6
		c-1.1,0-2.1,0.2-2.9,0.5c-1.2,0.4-1.8,1.1-1.8,1.9c0,0.6,0.3,1,0.9,1.2c0.6,0.2,1.7,0.4,3.4,0.6l2.7,0.2c2.4,0.2,4.2,0.6,5.4,1.4
		c0.7,0.4,1.2,1,1.7,1.6c0.6,0.9,0.8,1.8,0.8,2.9c0,1.9-0.9,3.5-2.6,4.6c-1.7,1.1-3.9,1.6-6.8,1.6c-2.9,0-5.7-0.6-8.4-1.8
		c-0.2-0.1-0.3-0.1-0.5-0.1c-0.2,0-0.4,0.1-0.6,0.4l-0.4-0.2l2-4.7l0.4,0.2c0,0.1,0,0.1,0,0.1c0,0.3,0.1,0.5,0.3,0.8
		c0.6,0.5,1.6,0.9,3,1.3c1.4,0.4,2.8,0.6,4.2,0.6c1.2,0,2.3-0.2,3.2-0.5c1.2-0.4,1.8-1,1.8-1.9c0-0.7-0.4-1.2-1.2-1.5
		c-0.5-0.2-1.5-0.3-3-0.5l-2.7-0.2c-1.4-0.1-2.6-0.3-3.3-0.4c-0.8-0.2-1.4-0.4-2-0.8c-0.7-0.5-1.3-1.1-1.7-1.9s-0.6-1.6-0.6-2.6
		c0-2.1,0.9-3.7,2.7-4.8c1.6-1,3.7-1.5,6.1-1.5c1.3,0,2.5,0.1,3.7,0.4c1.1,0.3,2.5,0.8,4.1,1.5c0.5,0.2,0.8,0.3,1,0.3
		c0.2,0,0.4-0.1,0.7-0.4L298.8,47.3z"/>
	<path class="st0" d="M320.4,47.3l-2.3,4.5l-0.4-0.2c0-0.4-0.1-0.7-0.4-0.9c-0.6-0.6-1.6-1.1-2.9-1.4c-1.3-0.4-2.5-0.6-3.8-0.6
		c-1.1,0-2.1,0.2-2.9,0.5c-1.2,0.4-1.8,1.1-1.8,1.9c0,0.6,0.3,1,0.9,1.2c0.6,0.2,1.7,0.4,3.4,0.6l2.7,0.2c2.4,0.2,4.2,0.6,5.4,1.4
		c0.7,0.4,1.2,1,1.7,1.6c0.6,0.9,0.8,1.8,0.8,2.9c0,1.9-0.9,3.5-2.6,4.6c-1.7,1.1-3.9,1.6-6.8,1.6c-2.9,0-5.7-0.6-8.4-1.8
		c-0.2-0.1-0.3-0.1-0.5-0.1c-0.2,0-0.4,0.1-0.6,0.4l-0.4-0.2l2-4.7l0.4,0.2c0,0.1,0,0.1,0,0.1c0,0.3,0.1,0.5,0.3,0.8
		c0.6,0.5,1.6,0.9,3,1.3c1.4,0.4,2.8,0.6,4.2,0.6c1.2,0,2.3-0.2,3.2-0.5c1.2-0.4,1.8-1,1.8-1.9c0-0.7-0.4-1.2-1.2-1.5
		c-0.5-0.2-1.5-0.3-3-0.5l-2.7-0.2c-1.4-0.1-2.6-0.3-3.3-0.4c-0.8-0.2-1.4-0.4-2-0.8c-0.7-0.5-1.3-1.1-1.7-1.9s-0.6-1.6-0.6-2.6
		c0-2.1,0.9-3.7,2.7-4.8c1.6-1,3.7-1.5,6.1-1.5c1.3,0,2.5,0.1,3.7,0.4c1.1,0.3,2.5,0.8,4.1,1.5c0.5,0.2,0.8,0.3,1,0.3
		c0.2,0,0.4-0.1,0.7-0.4L320.4,47.3z"/>
	<path class="st0" d="M342.2,57.9l2.9,4.2l-0.4,0.3c-0.3-0.2-0.5-0.3-0.6-0.3c-0.2,0-0.6,0.2-1.4,0.6c-1.6,0.9-2.9,1.5-4.1,1.9
		s-2.6,0.5-4.1,0.5c-3.1,0-5.7-0.7-7.6-2.2c-1.1-0.9-2-1.9-2.7-3.2c-0.7-1.4-1.1-2.9-1.1-4.5c0-2.2,0.6-4.2,1.9-5.9
		c2-2.7,5.2-4,9.4-4c1.6,0,2.9,0.2,4.2,0.5c1.2,0.4,2.6,1,4.1,1.9c0.7,0.4,1.2,0.6,1.4,0.6c0.2,0,0.4-0.1,0.6-0.3l0.4,0.3l-2.9,4.2
		l-0.4-0.3c0-0.1,0-0.2,0-0.3c0-0.1,0-0.2,0-0.2c0-0.6-0.8-1.2-2.3-1.9c-1.5-0.7-2.9-1-4.4-1c-2.1,0-3.8,0.5-5.1,1.6
		c-1.5,1.2-2.3,2.8-2.3,4.7c0,1.9,0.8,3.5,2.3,4.7c1.4,1.1,3.1,1.6,5.1,1.6c1.6,0,3.2-0.4,4.8-1.2c1.3-0.6,1.9-1.2,1.9-1.7
		c0,0,0-0.2-0.1-0.5L342.2,57.9z"/>
	<path class="st0" d="M363.6,56.4h-10.7V63c0,0.4,0.1,0.6,0.2,0.8c0.2,0.2,0.4,0.3,0.9,0.5v0.5h-6.8v-0.5c0.4-0.1,0.7-0.3,0.8-0.4
		c0.2-0.2,0.2-0.5,0.2-0.8V47.4c0-0.4-0.1-0.6-0.2-0.8c-0.2-0.2-0.4-0.3-0.9-0.5v-0.5h6.8v0.5c-0.4,0.1-0.7,0.3-0.9,0.5
		c-0.2,0.2-0.2,0.5-0.2,0.8V53h10.7v-5.6c0-0.4-0.1-0.6-0.2-0.8c-0.2-0.2-0.4-0.3-0.9-0.5v-0.5h6.8v0.5c-0.4,0.1-0.7,0.3-0.9,0.5
		c-0.2,0.2-0.2,0.5-0.2,0.8V63c0,0.4,0.1,0.6,0.2,0.8c0.2,0.2,0.4,0.3,0.9,0.5v0.5h-6.8v-0.5c0.4-0.1,0.7-0.3,0.8-0.4
		c0.2-0.2,0.2-0.5,0.2-0.8V56.4z"/>
	<path class="st0" d="M383.4,45.2c3,0,5.6,0.8,7.6,2.3c2.4,1.9,3.6,4.5,3.6,7.8c0,3.1-1.2,5.6-3.6,7.5c-2,1.5-4.5,2.3-7.6,2.3
		c-3,0-5.6-0.8-7.6-2.3c-2.4-1.9-3.7-4.4-3.7-7.7c0-3.3,1.2-5.8,3.7-7.7C377.9,46,380.4,45.2,383.4,45.2z M383.4,48.8
		c-2,0-3.6,0.6-4.8,1.9c-1.2,1.2-1.7,2.7-1.7,4.5c0,1.8,0.6,3.3,1.7,4.4c1.2,1.3,2.9,1.9,4.8,1.9c2,0,3.6-0.6,4.8-1.9
		c1.2-1.2,1.7-2.6,1.7-4.4c0-1.9-0.6-3.4-1.7-4.5C387,49.5,385.4,48.9,383.4,48.8z"/>
	<path class="st0" d="M408.3,45.2c3,0,5.6,0.8,7.6,2.3c2.4,1.9,3.6,4.5,3.6,7.8c0,3.1-1.2,5.6-3.6,7.5c-2,1.5-4.5,2.3-7.6,2.3
		c-3,0-5.6-0.8-7.6-2.3c-2.4-1.9-3.7-4.4-3.7-7.7c0-3.3,1.2-5.8,3.7-7.7C402.8,46,405.3,45.2,408.3,45.2z M408.4,48.8
		c-2,0-3.6,0.6-4.8,1.9c-1.2,1.2-1.7,2.7-1.7,4.5c0,1.8,0.6,3.3,1.7,4.4c1.2,1.3,2.9,1.9,4.8,1.9c2,0,3.6-0.6,4.8-1.9
		c1.2-1.2,1.7-2.6,1.7-4.4c0-1.9-0.6-3.4-1.7-4.5C411.9,49.5,410.3,48.9,408.4,48.8z"/>
	<path class="st0" d="M428.2,61.3h10.7c0.4,0,0.6-0.1,0.8-0.2c0.2-0.2,0.3-0.4,0.5-0.9h0.5v5.7h-0.5c-0.1-0.4-0.3-0.7-0.5-0.9
		c-0.2-0.2-0.5-0.2-0.8-0.2h-16.4v-0.5c0.4-0.1,0.7-0.3,0.8-0.4c0.2-0.2,0.2-0.5,0.2-0.8V47.4c0-0.4-0.1-0.6-0.2-0.8
		c-0.2-0.2-0.4-0.3-0.9-0.5v-0.5h6.8v0.5c-0.4,0.1-0.7,0.3-0.9,0.5c-0.2,0.2-0.2,0.5-0.2,0.8V61.3z"/>
</g>
</svg>
